PathFileType	4	(X/Y/Z)	Formatted/subject19/trials/walk2/markers.trc
DataRate	CameraRate	NumFrames	NumMarkers	Units	OrigDataRate	OrigDataStartFrame	OrigNumFrames
200.00000000000426	200.00000000000426	4	64	m	200.00000000000426	79	213
Frame#	Time	CLAV			C7			RACR			RASH			RPSH			RLEL			RMEL			RUA1			RUA2			RUA3			RFAsuperior			RFAradius			RFAulna			RASI			RPSI			RCAL			RTOE			RMT5			RTH1			RTH2			RTH3			RTB1			RTB2			RTB3			RLFC			RMFC			RLMAL			RMMAL			RHJC			RKJC			REJC			RAJC			RSJC			LACR			LASH			LPSH			LLEL			LMEL			LUA1			LUA2			LUA3			LFAsuperior			LFAradius			LFAulna			LASI			LPSI			LCAL			LTOE			LMT5			LTH1			LTH2			LTH3			LTB1			LTB2			LTB3			LLFC			LMFC			LLMAL			LMMAL			LHJC			LKJC			LEJC			LAJC			LSJC			
		X1	Y1	Z1	X2	Y2	Z2	X3	Y3	Z3	X4	Y4	Z4	X5	Y5	Z5	X6	Y6	Z6	X7	Y7	Z7	X8	Y8	Z8	X9	Y9	Z9	X10	Y10	Z10	X11	Y11	Z11	X12	Y12	Z12	X13	Y13	Z13	X14	Y14	Z14	X15	Y15	Z15	X16	Y16	Z16	X17	Y17	Z17	X18	Y18	Z18	X19	Y19	Z19	X20	Y20	Z20	X21	Y21	Z21	X22	Y22	Z22	X23	Y23	Z23	X24	Y24	Z24	X25	Y25	Z25	X26	Y26	Z26	X27	Y27	Z27	X28	Y28	Z28	X29	Y29	Z29	X30	Y30	Z30	X31	Y31	Z31	X32	Y32	Z32	X33	Y33	Z33	X34	Y34	Z34	X35	Y35	Z35	X36	Y36	Z36	X37	Y37	Z37	X38	Y38	Z38	X39	Y39	Z39	X40	Y40	Z40	X41	Y41	Z41	X42	Y42	Z42	X43	Y43	Z43	X44	Y44	Z44	X45	Y45	Z45	X46	Y46	Z46	X47	Y47	Z47	X48	Y48	Z48	X49	Y49	Z49	X50	Y50	Z50	X51	Y51	Z51	X52	Y52	Z52	X53	Y53	Z53	X54	Y54	Z54	X55	Y55	Z55	X56	Y56	Z56	X57	Y57	Z57	X58	Y58	Z58	X59	Y59	Z59	X60	Y60	Z60	X61	Y61	Z61	X62	Y62	Z62	X63	Y63	Z63	X64	Y64	Z64	

80	3.115	1.475290807104172	1.424468032158627	-0.4592783809866801	1.360985169746896	1.505146530877165	-0.4806657578400785	1.409948039579183	1.449955793435152	-0.292380841832972	1.471232972887651	1.409457975002637	-0.2780418150397506	1.376809480415484	1.427221852852276	-0.2724243201263848	1.383348174676442	1.131425552017362	-0.226561584130941	1.358356527884063	1.127637775723748	-0.2854376021815107	1.411085440249473	1.353234922985988	-0.2488240454717805	1.443959723470906	1.268471128042269	-0.2692224907857956	1.370066710895509	1.238997321365438	-0.2424352599700534	1.461962779315735	1.106198491332108	-0.2768740010685339	1.606778729399404	0.9739643382052255	-0.2554627594065197	1.549773426824792	0.9334714886380706	-0.2544771208311434	1.450591606269328	0.9947405881596701	-0.3607693121112437	1.283663698695773	1.020102466330208	-0.4396619241179404	1.176706263536746	0.05892444391562931	-0.4351161401596583	1.386338837151472	0.04833412210586824	-0.4583855357127888	1.374676551275415	0.01510394820511156	-0.3534776713670653	1.393518970881636	0.8258599775221259	-0.3111661905079393	1.440291184375187	0.6749512861041247	-0.3456813343294177	1.365856673843403	0.5921748804842206	-0.3538476465635256	1.383036865588713	0.3578264649418743	-0.4158480434827114	1.323726515924086	0.3120210629404373	-0.3526707569336495	1.326411168296604	0.1866176624271095	-0.416752156701853	1.361534488267221	0.495437685599561	-0.3630562386466283	1.349933615432684	0.4993451997906399	-0.4756529703326032	1.263489220247282	0.06325920475468472	-0.3698888802157513	1.261426030607457	0.06543169004711924	-0.4712510016263454	1.384481749418659	0.8885148228597659	-0.4087430906669215	1.357138226002477	0.4966216143525559	-0.4213966426600858	1.376616369871772	1.12376768819674	-0.2568937638166279	1.246999466479778	0.05484807000473257	-0.4272236692845909	1.427000287839064	1.417779463581301	-0.2754102995475844	1.385231367404705	1.473216791429136	-0.6628207598406815	1.450914174117851	1.426569136125095	-0.6736865914044655	1.34893680224791	1.445754124202705	-0.6676196968980306	1.29108940898055	1.171363771089419	-0.7168915970680197	1.274251822110929	1.17588711501709	-0.6542253287223765	1.356590423239138	1.385405600552652	-0.7065733123518784	1.29857616523734	1.327842767486262	-0.6762521442918612	1.35787432929461	1.27092652615307	-0.7115646174200838	1.323497695514426	1.099135020143886	-0.6701399652926296	1.344231194833926	0.8995122881867943	-0.7102785904452975	1.278514957478653	0.9067050223076969	-0.7302069417206338	1.458585981445179	0.9995401011257344	-0.5959691956639233	1.28649588647941	1.024309410460891	-0.5370291184058483	1.438249016850829	0.1138379640405554	-0.5710341555175644	1.643153649933621	0.07904668683857194	-0.5512884501547007	1.624280550823193	0.04777118448871767	-0.657931039423267	1.415746055164093	0.8339210036240006	-0.670274433490778	1.527401777392214	0.7765320370919954	-0.6633152868716299	1.51431774543821	0.6326676926911808	-0.6504420484229441	1.616321976645483	0.4105402214387623	-0.6051699033724531	1.557904626854566	0.3222033491242002	-0.6504457597633088	1.57054274977486	0.2223060530492861	-0.5880750903583251	1.581499420234978	0.5510248885270228	-0.6385432170938663	1.587351748784876	0.5474620994214177	-0.525490443185514	1.517467466331389	0.1106105717118588	-0.6373662894999003	1.521650000854918	0.1101837065004971	-0.5360470894845895	1.390918992016506	0.8898915053411389	-0.5612643877317852	1.590910693595604	0.5470741447665179	-0.5796444938867309	1.284573334026117	1.162504416223996	-0.6858765890594135	1.505076795291119	0.09990433379971769	-0.5793853879408217	1.406681489069264	1.434890624703758	-0.6710550759122993	
81	3.12	1.481543868749688	1.423908301637548	-0.4596715212870149	1.367296728280511	1.504697330643112	-0.480953966230059	1.416392822252733	1.44947924247203	-0.2927117658264	1.477651982421239	1.408922482344831	-0.2784293101122363	1.383251738411428	1.426780287062571	-0.2727196448373664	1.390926499752303	1.130917047471189	-0.2260012526802583	1.365704389746631	1.126897255033422	-0.284763499027344	1.417838653889051	1.352759207460217	-0.2489394772637145	1.450908178627762	1.268052512090218	-0.2692593762512233	1.3772242702889	1.238403775894873	-0.242091888031002	1.46959001392493	1.106703550098098	-0.276610718175353	1.616190638728615	0.9763573300393843	-0.2557758520873877	1.559717772689415	0.93513190642876	-0.2545402467556832	1.456067143600869	0.9941045756010289	-0.3607668863260405	1.289352233308891	1.019806332258788	-0.4399991639122924	1.176864932330571	0.05924955479287501	-0.435116133313995	1.386490055143244	0.04818154772053064	-0.4582298242999364	1.374675699856802	0.01499547663111015	-0.3533250147546932	1.398385058386555	0.8252953497529214	-0.3112739240746117	1.443668500364468	0.6739377106103475	-0.3458085908518744	1.368435174954781	0.5918756525954481	-0.3538636341864237	1.38412738427048	0.357566051181801	-0.4157696150374977	1.324637859996073	0.3119581400815401	-0.3526179174179456	1.326963335567849	0.1865362616300173	-0.4166771914067773	1.363176009641267	0.4951820859993258	-0.3630429418720261	1.351475588418531	0.4991738332418247	-0.4756264175742914	1.26362711129466	0.06338434252649511	-0.3698287674782214	1.261627303770811	0.06554647191431323	-0.4711923806097077	1.389828819705482	0.8880107484025362	-0.4088552850640079	1.358669044586287	0.4964411423380463	-0.4213554884742223	1.384094727677597	1.123159931224757	-0.2562858236127773	1.247142930737859	0.05501564858304969	-0.4271713690734998	1.433430188114843	1.417287970964856	-0.2757546174142235	1.391329661585881	1.472723324015044	-0.663129464398194	1.456955473588224	1.4260095719988	-0.6740555483376272	1.355003210057628	1.44529600109396	-0.6678891098407677	1.295793977645958	1.171386126587457	-0.7168873934679931	1.279251838483019	1.175939022768543	-0.6541446255299557	1.362271828876777	1.385133434898115	-0.7067120254630305	1.304141096137079	1.327802641086844	-0.6761750788774997	1.36303490133316	1.270653365588241	-0.7117866158564506	1.32798591953443	1.098935658484405	-0.6702872746043999	1.347483352863594	0.8992357761813655	-0.7106608976634989	1.281739743399316	0.9068064417130902	-0.7303576308656593	1.464544277213825	0.9988459471358753	-0.5959510443470143	1.292388979210686	1.023990213669104	-0.5373611867997203	1.458021810230797	0.1079242631810707	-0.5711276618868567	1.663972354208387	0.07986056173692883	-0.551556340904243	1.646084260876643	0.0482300857571931	-0.6582639876284683	1.421497620719448	0.8331364568756597	-0.6702282614622156	1.53295838592714	0.7754143671949243	-0.6629083099755738	1.519399145673415	0.6316105340951427	-0.6498520340992682	1.625496293193294	0.4106394281813656	-0.6046472706694889	1.570180475800224	0.3204138574810607	-0.6500939391588277	1.586380961280918	0.2208702890527743	-0.5879818262435017	1.58629927091317	0.5497791710059867	-0.6376656340910953	1.591862704539771	0.5463684297491629	-0.5245935864648078	1.53722173075418	0.1074983579019587	-0.6375062026431355	1.541509163654402	0.1069705267434085	-0.5361918630159835	1.396575435001137	0.8893470759994423	-0.5613635694811917	1.59532231517779	0.5461321697435657	-0.5787621380717404	1.289375729169958	1.162533592147555	-0.6858500475165771	1.52526817432755	0.0962208734881797	-0.5795418339437747	1.412733679281828	1.434375060618826	-0.6713808556396144	
82	3.125	1.487812510862525	1.423284204176549	-0.4600807596610986	1.373625855353112	1.504183862062378	-0.4812673552661062	1.422837721014261	1.448934645909668	-0.2930645229014733	1.48406976812541	1.408318828310666	-0.2788337181056922	1.389692373877679	1.426270201083121	-0.2730403420094348	1.398522803830998	1.130344901477592	-0.2254616648648558	1.373070925833793	1.126090413207835	-0.2841082026664547	1.424595067110529	1.352216419809915	-0.2490759947581947	1.45786412045699	1.267569097668404	-0.2693174607504165	1.384393379676252	1.237743669264794	-0.2417687331584282	1.477213071280285	1.107123699504227	-0.2763761451048854	1.625545270030295	0.9786575653396259	-0.2561281054931258	1.569606274810767	0.9367189544917102	-0.2546352541712458	1.461552266929434	0.993436812843506	-0.3607761490636472	1.29505659040686	1.01946209408133	-0.4403630189370387	1.17702618268332	0.05958915060874502	-0.4351130165904648	1.386641610549636	0.04802529955490496	-0.4580713561428215	1.374672488633303	0.01488322395974001	-0.3531701820945467	1.403261677069923	0.8246918875468332	-0.3113670441159636	1.447071350254168	0.6729053520014209	-0.345920313370958	1.3710560655006	0.5915565687341611	-0.353868287058156	1.38525882999309	0.3572922500559529	-0.4156842770655799	1.325585333821109	0.3118893763691777	-0.3525584116762549	1.327534159081966	0.186450893726418	-0.4165977368390361	1.3648721007747	0.494915060906913	-0.363019345773154	1.353077525016849	0.4989928178816006	-0.4755899137951183	1.263768360706072	0.06351460248417629	-0.3697657118802397	1.261831173953834	0.06566801872103956	-0.4711307265879262	1.395184021620114	0.887464197354652	-0.4089526017795639	1.360259572698781	0.4962493196020413	-0.4213047702004224	1.391591605368175	1.122487508193263	-0.2556977535231544	1.247288203573311	0.05519142845780511	-0.4271160946136557	1.43985867779006	1.416728148885923	-0.2761198110734004	1.397462496849685	1.472169495754564	-0.6634615538235609	1.463032325245978	1.42539007609826	-0.67444265756379	1.361104739458429	1.444777558692512	-0.668185811379832	1.300557571570117	1.171340254264915	-0.7168710004332439	1.284311490005211	1.175926590724534	-0.6540533555242396	1.367993979937908	1.384795114577237	-0.7068655986994506	1.309753375689425	1.32769540345084	-0.6761058503144974	1.36824462882598	1.270315864411231	-0.7120093787289843	1.332552411778031	1.098684213493003	-0.6704184026135517	1.350858267237207	0.898913530463022	-0.7109990900748765	1.285085921459067	0.9068429797563883	-0.7304572715306686	1.470523383562292	0.9980520715971123	-0.5959444909707896	1.298302635390197	1.023594781980184	-0.537720475111471	1.477719777960603	0.1024155556899495	-0.5712353603115636	1.684486640145628	0.08103323791413991	-0.5518318632785852	1.667578522253691	0.04908971671522958	-0.6586060163585279	1.427278103388632	0.8322754619884987	-0.6701679400052641	1.538512308986034	0.7741685079381135	-0.6624571097216163	1.524406305690565	0.630430771663558	-0.6492531106341866	1.634447243212531	0.4107246984679748	-0.604117135263212	1.58227771130503	0.318731438603249	-0.649740298446537	1.60201250069483	0.2196623465100405	-0.5878925386195157	1.590981057428364	0.5483789156713265	-0.6367710256094798	1.596212134166516	0.5450960720028748	-0.5236793297266783	1.556801687241437	0.104762504052007	-0.6376569548887777	1.561204620691535	0.1041343134148995	-0.536348141578932	1.402247206963992	0.8887160522435189	-0.5614472694810992	1.599576184534381	0.5450140948602868	-0.5778652907912923	1.294238205287531	1.162496815521131	-0.6858107795037554	1.545307085013293	0.09293022470897866	-0.5797103545585738	1.418821234910629	1.433799396673516	-0.6717287505314982	
83	3.13	1.494096296257594	1.422597182800617	-0.4605062914060644	1.379972300623744	1.5036075455992	-0.4816073225563789	1.429281483588341	1.448324886009906	-0.2934397861918185	1.490484967012789	1.407649930562732	-0.2792550883142967	1.396129994809912	1.425694682403261	-0.2733870658528537	1.406135559489398	1.129712111330347	-0.2249445914207069	1.380454943129923	1.125220454376878	-0.2834736109011864	1.431353189102294	1.351609501955876	-0.2492342873061389	1.464826172906659	1.267023953586298	-0.2693976293917949	1.391572573506686	1.237019987203372	-0.2414671711336951	1.484831593339254	1.107461165622905	-0.2761708822452045	1.634841656732791	0.9808643255480851	-0.2565190913582056	1.579437102029558	0.9382322036169448	-0.2547628542223295	1.467047107422162	0.9927410192900517	-0.3607947738852491	1.300776804932902	1.019069108581536	-0.4407523479158011	1.177190609026775	0.05994574299280615	-0.4351065948797577	1.386794247314515	0.0478668041403633	-0.4579068066883564	1.374665962489544	0.01476911522231032	-0.353009899839783	1.408150512832002	0.8240519295083131	-0.3114441832416124	1.45050243122323	0.671855975708567	-0.3460140387397996	1.373722041230839	0.5912189767400238	-0.3538603404753726	1.386433967892672	0.3570056756386217	-0.4155899811470998	1.326570496468744	0.3118162244417853	-0.3524908507635425	1.328124967706919	0.1863629154492327	-0.4165119168036241	1.366625743780525	0.4946375916569194	-0.3629840978365884	1.354744451048502	0.4988026884624236	-0.4755423483367483	1.263912631320177	0.06365225777113853	-0.3696982686161652	1.262038739356507	0.06579822780762218	-0.4710646310950602	1.400550735631587	0.8868773212987706	-0.4090339675101003	1.361913928689533	0.4960467763318648	-0.4212432970475481	1.399105645660749	1.121753527047215	-0.2551313840041898	1.247435695265792	0.05537762077811093	-0.4270565998816093	1.446284380284351	1.416102994562428	-0.2765062131922337	1.403630494134488	1.471555218172103	-0.6638181051742982	1.469145357776564	1.424710385173235	-0.6748483092486547	1.367241987797457	1.444198717161007	-0.6685108449902961	1.305381228061386	1.171225396944478	-0.7168424135757673	1.289431175691332	1.175849630438327	-0.6539517270297047	1.373757808104314	1.384390147313534	-0.7070349098115215	1.315413595669627	1.327520824951708	-0.6760455541529268	1.373504531608973	1.269913351371989	-0.7122328958063983	1.337197242039471	1.098379790351831	-0.6705319914678887	1.354356456411966	0.8985435362103759	-0.7112904903364878	1.288554288736215	0.9068128061267466	-0.730504869458501	1.4765248670816	0.9971639327361111	-0.5959469384316217	1.304237423754941	1.023123177116545	-0.5381057188679244	1.497296196199592	0.09733337366689615	-0.5713479333411221	1.704655504494551	0.08256380808860046	-0.5521070470704683	1.688717238342211	0.05034529802464334	-0.6589477324131211	1.433093284748731	0.8313443749407184	-0.6700935068739888	1.544072023043363	0.7728074977738606	-0.6619647206395316	1.529356533640835	0.6291410062131566	-0.6486509937199747	1.643179468677613	0.4108017872324259	-0.6035833883068046	1.594185829701092	0.3171655930384689	-0.6493849102853253	1.617412464977201	0.2186895092283644	-0.5878034467818554	1.595566625179432	0.5468408085929102	-0.6358678666611319	1.600423829548323	0.543660632681394	-0.522756563287284	1.576163961557936	0.1024123043337107	-0.6378100579865397	1.580693257715424	0.1016884181460729	-0.5365074540427276	1.407938666093711	0.8880017504871872	-0.5615142401611993	1.603696571571326	0.5437350476780529	-0.5769630735394373	1.299161489259943	1.16239359554406	-0.685758780318334	1.5651482668244	0.09004586630619593	-0.5798819742558285	1.424944771048126	1.433163449172931	-0.6720994341265917	
